<?xml version="1.0" standalone="no"?>
<svg xmlns:xlink="http://www.w3.org/1999/xlink" id="wave" style="transform:rotate(0deg); transition: 0.3s" viewBox="0 0 1440 490" version="1.1" xmlns="http://www.w3.org/2000/svg"><defs><linearGradient id="sw-gradient-0" x1="0" x2="0" y1="1" y2="0"><stop stop-color="rgba(243, 106, 62, 1)" offset="0%"/><stop stop-color="rgba(245.069, 11, 255, 1)" offset="100%"/></linearGradient></defs><path style="transform:translate(0, 0px); opacity:1" fill="url(#sw-gradient-0)" d="M0,245L30,204.2C60,163,120,82,180,73.5C240,65,300,131,360,171.5C420,212,480,229,540,269.5C600,310,660,376,720,392C780,408,840,376,900,359.3C960,343,1020,343,1080,310.3C1140,278,1200,212,1260,228.7C1320,245,1380,343,1440,383.8C1500,425,1560,408,1620,408.3C1680,408,1740,425,1800,367.5C1860,310,1920,180,1980,122.5C2040,65,2100,82,2160,89.8C2220,98,2280,98,2340,106.2C2400,114,2460,131,2520,147C2580,163,2640,180,2700,171.5C2760,163,2820,131,2880,138.8C2940,147,3000,196,3060,204.2C3120,212,3180,180,3240,204.2C3300,229,3360,310,3420,294C3480,278,3540,163,3600,122.5C3660,82,3720,114,3780,171.5C3840,229,3900,310,3960,359.3C4020,408,4080,425,4140,416.5C4200,408,4260,376,4290,359.3L4320,343L4320,490L4290,490C4260,490,4200,490,4140,490C4080,490,4020,490,3960,490C3900,490,3840,490,3780,490C3720,490,3660,490,3600,490C3540,490,3480,490,3420,490C3360,490,3300,490,3240,490C3180,490,3120,490,3060,490C3000,490,2940,490,2880,490C2820,490,2760,490,2700,490C2640,490,2580,490,2520,490C2460,490,2400,490,2340,490C2280,490,2220,490,2160,490C2100,490,2040,490,1980,490C1920,490,1860,490,1800,490C1740,490,1680,490,1620,490C1560,490,1500,490,1440,490C1380,490,1320,490,1260,490C1200,490,1140,490,1080,490C1020,490,960,490,900,490C840,490,780,490,720,490C660,490,600,490,540,490C480,490,420,490,360,490C300,490,240,490,180,490C120,490,60,490,30,490L0,490Z"/></svg>